<svg width="128" height="128" viewBox="0 0 128 128" fill="none" xmlns="http://www.w3.org/2000/svg">
<g clip-path="url(#clip0)">
<path d="M36.0716 57.4106C36.0716 59.0026 36.2423 60.2906 36.541 61.2373C36.8823 62.1839 37.3063 63.2159 37.9036 64.3333C38.117 64.6773 38.2023 65.0213 38.2023 65.3226C38.2023 65.7519 37.9463 66.1813 37.3943 66.6133L34.7116 68.4186C34.3276 68.6773 33.9463 68.8053 33.605 68.8053C33.1783 68.8053 32.7543 68.5893 32.3276 68.2026C31.7303 67.5573 31.221 66.8693 30.7943 66.1813C30.3676 65.4506 29.9436 64.6346 29.4743 63.6453C26.1543 67.5999 21.981 69.5786 16.957 69.5786C13.381 69.5786 10.5276 68.5466 8.4423 66.4826C6.35697 64.4186 5.29297 61.6666 5.29297 58.2266C5.29297 54.5732 6.5703 51.6053 9.16763 49.3706C11.765 47.1359 15.213 46.0159 19.597 46.0159C21.045 46.0159 22.5356 46.1439 24.109 46.3599C25.6823 46.5759 27.301 46.9199 29.005 47.3066V44.1679C29.005 40.9013 28.325 38.6213 27.005 37.2879C25.6423 35.9546 23.3436 35.3093 20.0663 35.3093C18.5756 35.3093 17.045 35.4799 15.469 35.8693C13.893 36.2559 12.3623 36.7279 10.8716 37.3306C10.1916 37.6319 9.67964 37.8026 9.38097 37.8906C9.0823 37.9759 8.86897 38.0186 8.70097 38.0186C8.10364 38.0186 7.80764 37.5893 7.80764 36.6853V34.5786C7.80764 33.8906 7.89297 33.3759 8.1063 33.0746C8.31964 32.7733 8.70364 32.4719 9.2983 32.1706C10.789 31.3973 12.5756 30.7519 14.6636 30.2346C16.749 29.6746 18.9623 29.4186 21.3036 29.4186C26.3703 29.4186 30.0743 30.5786 32.4583 32.9013C34.7996 35.2239 35.9916 38.7493 35.9916 43.4773V57.4079H36.0716V57.4106ZM18.7863 63.9439C20.1916 63.9439 21.6396 63.6852 23.1703 63.1706C24.7036 62.6559 26.0663 61.7093 27.2156 60.4186C27.8956 59.6026 28.4076 58.6986 28.6636 57.6666C28.9196 56.6346 29.0903 55.3866 29.0903 53.9253V52.1199C27.8556 51.8186 26.5356 51.5599 25.173 51.3893C23.8103 51.2186 22.4903 51.1306 21.1703 51.1306C18.317 51.1306 16.2316 51.6906 14.8263 52.8506C13.421 54.0106 12.741 55.6453 12.741 57.7946C12.741 59.8159 13.253 61.3199 14.317 62.3519C15.3383 63.4293 16.829 63.9439 18.7863 63.9439ZM52.973 68.5893C52.2076 68.5893 51.6956 68.4613 51.3543 68.1599C51.013 67.9013 50.717 67.3013 50.461 66.4826L40.4556 33.2479C40.1996 32.3893 40.0716 31.8293 40.0716 31.5279C40.0716 30.8399 40.413 30.4533 41.093 30.4533H45.2663C46.0743 30.4533 46.629 30.5813 46.9276 30.8826C47.269 31.1413 47.5223 31.7413 47.7783 32.5599L54.9303 61.0239L61.5703 32.5599C61.7836 31.7013 62.0396 31.1413 62.3783 30.8826C62.7196 30.6239 63.3143 30.4533 64.0823 30.4533H67.4876C68.2956 30.4533 68.8503 30.5813 69.1916 30.8826C69.533 31.1413 69.829 31.7413 69.9996 32.5599L76.725 61.3679L84.0903 32.5599C84.3463 31.7013 84.645 31.1413 84.941 30.8826C85.2823 30.6239 85.8343 30.4533 86.6023 30.4533H90.5623C91.2423 30.4533 91.6263 30.7973 91.6263 31.5279C91.6263 31.7439 91.5836 31.9573 91.541 32.2159C91.4983 32.4746 91.413 32.8186 91.2423 33.2906L80.9836 66.5253C80.7276 67.3839 80.429 67.9439 80.0903 68.2026C79.7516 68.4613 79.197 68.6319 78.4716 68.6319H74.8103C74.0023 68.6319 73.4476 68.5039 73.1063 68.2026C72.765 67.9013 72.469 67.3439 72.2983 66.4826L65.701 38.7493L59.1463 66.4399C58.933 67.2986 58.677 67.8586 58.3383 68.1599C57.997 68.4613 57.4023 68.5893 56.6343 68.5893H52.973ZM107.677 69.7493C105.464 69.7493 103.25 69.4906 101.122 68.9759C98.9943 68.4613 97.333 67.9013 96.2263 67.2559C95.5463 66.8693 95.077 66.4399 94.9063 66.0533C94.7356 65.6666 94.6503 65.2373 94.6503 64.8506V62.6586C94.6503 61.7546 94.9916 61.3253 95.629 61.3253C95.885 61.3253 96.141 61.3679 96.3943 61.4533C96.6503 61.5386 97.0316 61.7119 97.4583 61.8826C98.9063 62.5279 100.48 63.0426 102.141 63.3866C103.845 63.7306 105.504 63.9013 107.208 63.9013C109.89 63.9013 111.976 63.4293 113.424 62.4826C114.872 61.5359 115.637 60.1599 115.637 58.3973C115.637 57.1946 115.253 56.2053 114.488 55.3866C113.722 54.5706 112.274 53.8399 110.189 53.1519L104.016 51.2159C100.909 50.2266 98.6103 48.7653 97.205 46.8293C95.7996 44.9386 95.077 42.8319 95.077 40.5946C95.077 38.7893 95.461 37.1973 96.2263 35.8213C96.9916 34.4453 98.0156 33.2426 99.2903 32.2959C100.568 31.3066 102.016 30.5759 103.717 30.0613C105.421 29.5493 107.208 29.3333 109.082 29.3333C110.018 29.3333 110.997 29.3759 111.936 29.5039C112.914 29.6319 113.808 29.8053 114.704 29.9759C115.554 30.1919 116.365 30.4053 117.13 30.6639C117.896 30.9226 118.493 31.1786 118.92 31.4373C119.517 31.7813 119.941 32.1253 120.197 32.5119C120.453 32.8559 120.581 33.3279 120.581 33.9306V35.9519C120.581 36.8559 120.24 37.3279 119.602 37.3279C119.261 37.3279 118.709 37.1573 117.984 36.8133C115.557 35.6959 112.832 35.1359 109.81 35.1359C107.384 35.1359 105.469 35.5226 104.149 36.3386C102.829 37.1546 102.149 38.4026 102.149 40.1653C102.149 41.3679 102.576 42.3999 103.426 43.2186C104.277 44.0346 105.853 44.8533 108.109 45.5839L114.154 47.5199C117.218 48.5093 119.434 49.8853 120.752 51.6479C122.069 53.4106 122.709 55.4319 122.709 57.6666C122.709 59.5146 122.325 61.1919 121.602 62.6533C120.837 64.1146 119.813 65.4053 118.496 66.4373C117.176 67.5119 115.6 68.2853 113.77 68.8453C111.848 69.4479 109.848 69.7493 107.677 69.7493Z" fill="#252F3E"/>
<path d="M115.723 90.6453C101.718 101.093 81.3684 106.64 63.8698 106.64C39.3498 106.64 17.2538 97.4826 0.565759 82.2613C-0.754241 81.0586 0.437759 79.424 2.01376 80.3706C20.0644 90.9466 42.3284 97.3546 65.3604 97.3546C80.8991 97.3546 97.9711 94.088 113.678 87.3786C116.022 86.304 118.022 88.9253 115.723 90.6453ZM121.555 83.9386C119.766 81.616 109.72 82.8213 105.166 83.3786C103.803 83.5493 103.59 82.3466 104.824 81.4426C112.827 75.768 125.982 77.4 127.515 79.2933C129.048 81.2293 127.088 94.5146 119.598 100.877C118.448 101.867 117.342 101.349 117.851 100.061C119.555 95.8053 123.344 86.216 121.555 83.9386Z" fill="#FF9900"/>
</g>
<defs>
<clipPath id="clip0">
<rect width="128" height="128" fill="white"/>
</clipPath>
</defs>
</svg>
