<svg width="176" height="181" viewBox="0 0 176 181" fill="none" xmlns="http://www.w3.org/2000/svg">
<g clip-path="url(#clip0)">
<path d="M87.7371 177.94C134.614 177.94 172.614 138.743 172.614 90.3901C172.614 42.0376 134.614 2.84009 87.7371 2.84009C40.8607 2.84009 2.85986 42.0376 2.85986 90.3901C2.85986 138.743 40.8607 177.94 87.7371 177.94Z" fill="white" stroke="black" stroke-width="5"/>
<path fill-rule="evenodd" clip-rule="evenodd" d="M65.1968 156.75L87.5819 158C123.772 158.08 153.167 127.89 153.244 90.5701C153.322 53.2501 124.053 22.9201 87.8727 22.8401H65.9239L65.1968 156.75Z" fill="white" stroke="black" stroke-width="5"/>
<path fill-rule="evenodd" clip-rule="evenodd" d="M88.9488 113L86.5832 112.99C86.3409 112.99 86.147 112.69 86.147 112.32L86.2536 46.16C86.2536 45.79 86.4475 45.49 86.6899 45.49L89.0554 45.5C89.2978 45.5 89.4917 45.8 89.4917 46.17L89.385 112.33C89.385 112.71 89.1911 113.01 88.9488 113Z" fill="black"/>
<path fill-rule="evenodd" clip-rule="evenodd" d="M114.311 115.15L85.7983 90.5001L126.526 69.2401L127.893 68.5201C129.434 67.7101 131.179 67.3901 132.905 67.6201L135.726 68.0001L133.525 70.5101C132.827 71.3101 131.984 71.9701 131.053 72.4701L129.008 73.5501L89.6762 90.5001L117.452 111.29C118.547 112.03 119.497 112.98 120.234 114.1L122.154 117L119.042 116.78C117.355 116.66 115.726 116.1 114.311 115.15Z" fill="black" stroke="black" stroke-width="5"/>
<path d="M87.737 98.5C91.485 98.5 94.5233 95.366 94.5233 91.5C94.5233 87.634 91.485 84.5 87.737 84.5C83.989 84.5 80.9507 87.634 80.9507 91.5C80.9507 95.366 83.989 98.5 87.737 98.5Z" fill="white" stroke="black" stroke-width="5"/>
</g>
<defs>
<clipPath id="clip0">
<rect width="175.474" height="181" rx="5" fill="white"/>
</clipPath>
</defs>
</svg>
