<svg width="128" height="128" viewBox="0 0 128 128" fill="none" xmlns="http://www.w3.org/2000/svg">
<path d="M63.9996 104.192C86.197 104.192 104.192 86.197 104.192 63.9996C104.192 41.8022 86.197 23.8076 63.9996 23.8076C41.8022 23.8076 23.8076 41.8022 23.8076 63.9996C23.8076 86.197 41.8022 104.192 63.9996 104.192Z" fill="#525967"/>
<path d="M63.9996 26.8796C71.3413 26.8796 78.518 29.0567 84.6224 33.1355C90.7267 37.2143 95.4845 43.0116 98.294 49.7944C101.104 56.5772 101.839 64.0408 100.406 71.2414C98.9741 78.4419 95.4388 85.0561 90.2474 90.2474C85.0561 95.4387 78.442 98.9741 71.2414 100.406C64.0408 101.839 56.5772 101.104 49.7944 98.294C43.0116 95.4845 37.2143 90.7267 33.1355 84.6224C29.0567 78.518 26.8796 71.3413 26.8796 63.9996C26.8932 54.1589 30.8084 44.7252 37.7668 37.7668C44.7252 30.8084 54.159 26.8932 63.9996 26.8796ZM63.9996 23.8076C56.0504 23.8076 48.2797 26.1648 41.6702 30.5812C35.0606 34.9975 29.9091 41.2747 26.8671 48.6188C23.825 55.9629 23.0291 64.0442 24.5799 71.8407C26.1307 79.6372 29.9586 86.7987 35.5796 92.4197C41.2006 98.0406 48.3621 101.869 56.1586 103.419C63.955 104.97 72.0363 104.174 79.3804 101.132C86.7246 98.0901 93.0017 92.9386 97.4181 86.3291C101.834 79.7196 104.192 71.9488 104.192 63.9996C104.192 53.34 99.9571 43.117 92.4197 35.5796C84.8822 28.0421 74.6592 23.8076 63.9996 23.8076Z" fill="#454B57"/>
<path d="M56.3199 87.6031C58.411 87.6031 60.4166 86.7724 61.8953 85.2937C63.3739 83.815 64.2047 81.8095 64.2047 79.7183V71.6799H56.3199C54.2287 71.6799 52.2231 72.5106 50.7445 73.9893C49.2658 75.468 48.4351 77.4736 48.4351 79.5647C48.4351 81.6559 49.2658 83.6614 50.7445 85.1401C52.2231 86.6188 54.2287 87.4495 56.3199 87.4495V87.6031Z" fill="#0ACF83"/>
<path d="M48.23 64.0001C48.2565 62.9646 48.4869 61.9444 48.9078 60.9979C49.3288 60.0514 49.9322 59.1971 50.6834 58.4839C51.4347 57.7707 52.3191 57.2125 53.2862 56.8412C54.2533 56.4699 55.284 56.2929 56.3196 56.3201H63.9996V71.6801H56.3196C55.284 71.7074 54.2533 71.5303 53.2862 71.159C52.3191 70.7877 51.4347 70.2295 50.6834 69.5163C49.9322 68.8031 49.3288 67.9488 48.9078 67.0023C48.4869 66.0558 48.2565 65.0357 48.23 64.0001Z" fill="#A259FF"/>
<path d="M48.2303 48.2301C48.2367 47.1815 48.4523 46.1447 48.8643 45.1804C49.2763 44.2162 49.8766 43.3438 50.6299 42.6143C51.3832 41.8848 52.2744 41.313 53.2514 40.9321C54.2284 40.5513 55.2716 40.3692 56.3199 40.3965H63.9999V56.3197H56.3199C55.2499 56.3478 54.1853 56.1579 53.1911 55.7613C52.1969 55.3647 51.2938 54.7699 50.5369 54.013C49.7801 53.2561 49.1852 52.3531 48.7886 51.3588C48.3921 50.3646 48.2021 49.3001 48.2303 48.2301Z" fill="#F24E1E"/>
<path d="M64 40.3962H71.68C73.7915 40.3962 75.8166 41.235 77.3097 42.7281C78.8028 44.2212 79.6416 46.2463 79.6416 48.3578C79.6416 50.4694 78.8028 52.4945 77.3097 53.9875C75.8166 55.4806 73.7915 56.3194 71.68 56.3194H64V40.3962Z" fill="#FF7262"/>
<path d="M79.7694 64.0001C79.8094 65.5588 79.3863 67.0944 78.5537 68.4127C77.721 69.731 76.5162 70.7729 75.0915 71.4065C73.6669 72.0402 72.0863 72.2372 70.5497 71.9727C69.013 71.7082 67.5893 70.994 66.4585 69.9205C65.3277 68.8469 64.5406 67.4622 64.1966 65.9414C63.8527 64.4205 63.9674 62.8319 64.5263 61.3762C65.0851 59.9206 66.063 58.6633 67.3363 57.7633C68.6096 56.8634 70.1212 56.3611 71.6799 56.3201C72.7154 56.2929 73.7461 56.4699 74.7132 56.8412C75.6803 57.2125 76.5647 57.7707 77.316 58.4839C78.0672 59.1971 78.6706 60.0514 79.0916 60.9979C79.5126 61.9444 79.7429 62.9646 79.7694 64.0001Z" fill="#1ABCFE"/>
</svg>
