<svg width="128" height="128" viewBox="0 0 128 128" fill="none" xmlns="http://www.w3.org/2000/svg">
<path d="M74.2591 51.3946L65.1756 59.8468L56.7466 42.8456L61.1081 33.0686C62.2121 31.1086 64.0133 31.1048 65.1173 33.0686L74.2591 51.3946Z" fill="#FFA000"/>
<path d="M65.1755 59.8465L31.231 91.4242L56.7465 42.8452L65.1755 59.8465Z" fill="#F57F17"/>
<path d="M84.194 38.4753C85.8167 36.9156 87.4945 37.4476 87.922 39.6576L96.7575 91.0013L67.4682 108.555C66.4432 109.121 63.729 109.367 63.729 109.367C63.729 109.367 61.2515 109.07 60.3072 108.546L31.23 91.4226L84.194 38.4753Z" fill="#FFCA28"/>
<path d="M56.7465 42.8453L31.231 91.4243L42.596 20.4248C43.0145 18.213 44.2735 18 45.3967 19.9523L56.7465 42.8453Z" fill="#FFA000"/>
</svg>
