<svg width="128" height="128" viewBox="0 0 128 128" fill="none" xmlns="http://www.w3.org/2000/svg">
<path d="M65.3332 120.43L18.6665 92.8535V37.8135L65.3332 10.2375L112 37.8135V92.8535L65.3332 120.43ZM23.9998 89.8135L65.3332 114.238L106.667 89.8135V40.8535L65.3332 16.4295L23.9998 40.8535V89.8135Z" fill="#FF4081"/>
<path d="M65.3333 23.9999C70.488 23.9999 74.6667 19.8212 74.6667 14.6666C74.6667 9.51193 70.488 5.33325 65.3333 5.33325C60.1787 5.33325 56 9.51193 56 14.6666C56 19.8212 60.1787 23.9999 65.3333 23.9999Z" fill="#FF4081"/>
<path d="M65.3333 125.333C70.488 125.333 74.6667 121.155 74.6667 116C74.6667 110.845 70.488 106.667 65.3333 106.667C60.1787 106.667 56 110.845 56 116C56 121.155 60.1787 125.333 65.3333 125.333Z" fill="#FF4081"/>
<path d="M22.6668 98.6667C27.8215 98.6667 32.0002 94.488 32.0002 89.3333C32.0002 84.1787 27.8215 80 22.6668 80C17.5122 80 13.3335 84.1787 13.3335 89.3333C13.3335 94.488 17.5122 98.6667 22.6668 98.6667Z" fill="#FF4081"/>
<path d="M108 98.6667C113.154 98.6667 117.333 94.488 117.333 89.3333C117.333 84.1787 113.154 80 108 80C102.845 80 98.6665 84.1787 98.6665 89.3333C98.6665 94.488 102.845 98.6667 108 98.6667Z" fill="#FF4081"/>
<path d="M22.6668 50.6667C27.8215 50.6667 32.0002 46.488 32.0002 41.3333C32.0002 36.1787 27.8215 32 22.6668 32C17.5122 32 13.3335 36.1787 13.3335 41.3333C13.3335 46.488 17.5122 50.6667 22.6668 50.6667Z" fill="#FF4081"/>
<path d="M108 50.6667C113.154 50.6667 117.333 46.488 117.333 41.3333C117.333 36.1787 113.154 32 108 32C102.845 32 98.6665 36.1787 98.6665 41.3333C98.6665 46.488 102.845 50.6667 108 50.6667Z" fill="#FF4081"/>
<path d="M113.919 93.3334H16.7461L65.3328 7.94141L113.919 93.3334ZM25.9194 88.0001H104.746L65.3328 18.7254L25.9194 88.0001Z" fill="#FF4081"/>
</svg>
