<svg width="40" height="40" viewBox="0 0 40 40" fill="none" xmlns="http://www.w3.org/2000/svg">
<rect width="40" height="40" rx="20" fill="#0277FB"/>
<path d="M14.136 15.008C13.3253 15.2747 12.696 15.7173 12.248 16.336C11.8107 16.944 11.592 17.7013 11.592 18.608C11.592 19.0133 11.6293 19.2907 11.704 19.44C11.7787 19.5893 11.816 19.68 11.816 19.712C10.6747 19.712 10.104 19.2267 10.104 18.256C10.104 17.5947 10.3547 16.9333 10.856 16.272C11.368 15.6 12.0187 15.056 12.808 14.64C13.608 14.2133 14.4027 14 15.192 14C15.5867 14 15.992 14.0747 16.408 14.224L16.04 22.656L19.56 14.224H21.864L20.184 26H17.88L18.904 18.816L15.896 26H13.704L14.024 18.784L11.352 26H10.072L14.136 15.008ZM25.2898 29.312C24.5111 29.312 23.8818 29.1093 23.4018 28.704C22.9324 28.3093 22.6978 27.7867 22.6978 27.136C22.6978 26.7307 22.7938 26.3573 22.9858 26.016C23.1778 25.6747 23.4391 25.408 23.7698 25.216C24.1004 25.0133 24.4631 24.912 24.8578 24.912C25.2631 24.912 25.5884 25.0133 25.8338 25.216C26.0898 25.4187 26.2178 25.6853 26.2178 26.016C26.2178 26.272 26.1591 26.4747 26.0418 26.624C25.9458 26.496 25.8124 26.3947 25.6418 26.32C25.4818 26.2453 25.3111 26.208 25.1298 26.208C24.8098 26.208 24.5484 26.3147 24.3458 26.528C24.1431 26.7413 24.0418 27.0187 24.0418 27.36C24.0418 27.7013 24.1378 27.9787 24.3298 28.192C24.5324 28.4053 24.7831 28.512 25.0818 28.512C25.4551 28.512 25.7751 28.3467 26.0418 28.016C26.3084 27.6853 26.5111 27.1947 26.6498 26.544L27.4498 23.008H27.3858C27.0978 23.4133 26.7458 23.7227 26.3298 23.936C25.9244 24.1493 25.4764 24.256 24.9858 24.256C24.3671 24.256 23.8231 24.0907 23.3538 23.76C22.8844 23.4293 22.5218 22.96 22.2658 22.352C22.0204 21.7333 21.8978 21.0187 21.8978 20.208C21.8978 19.0347 22.1538 17.968 22.6658 17.008C23.1778 16.0373 23.8818 15.2747 24.7778 14.72C25.6738 14.1653 26.6604 13.888 27.7378 13.888C28.6444 13.888 29.3591 14.0853 29.8818 14.48C30.4151 14.8747 30.6818 15.4133 30.6818 16.096C30.6818 16.5547 30.5698 16.9227 30.3458 17.2C30.1218 17.4773 29.8284 17.616 29.4658 17.616C29.2631 17.616 29.0711 17.5733 28.8898 17.488C28.7191 17.4027 28.5751 17.28 28.4578 17.12C28.6498 16.992 28.8098 16.7893 28.9378 16.512C29.0764 16.224 29.1458 15.936 29.1458 15.648C29.1458 15.328 29.0498 15.0827 28.8578 14.912C28.6764 14.7307 28.4151 14.64 28.0738 14.64C27.4551 14.64 26.8578 14.9173 26.2818 15.472C25.7058 16.016 25.2418 16.7307 24.8898 17.616C24.5378 18.5013 24.3618 19.4293 24.3618 20.4C24.3618 21.2 24.4898 21.8133 24.7458 22.24C25.0018 22.656 25.3698 22.864 25.8498 22.864C26.4258 22.864 26.9324 22.56 27.3698 21.952C27.8178 21.344 28.1751 20.4587 28.4418 19.296L30.3298 19.312L29.1618 24.688C28.8204 26.2773 28.3351 27.4453 27.7058 28.192C27.0871 28.9387 26.2818 29.312 25.2898 29.312Z" fill="white"/>
</svg>
