<svg width="128" height="68" viewBox="0 0 128 68" fill="none" xmlns="http://www.w3.org/2000/svg">
<path d="M1.20459 60.4563H5.31533V44.1551L11.7649 58.33C12.4737 60.031 13.5368 60.6689 15.5922 60.6689C17.6476 60.6689 18.5689 60.031 19.3486 58.33L25.7273 44.1551V60.4563H29.838V44.1551C29.838 42.5958 29.2002 41.8162 27.8535 41.3909C24.735 40.4696 22.6088 41.2492 21.6874 43.3754L15.4504 57.4087L9.3552 43.3754C8.43383 41.2492 6.30758 40.4696 3.18909 41.3909C1.84246 41.8162 1.20459 42.5249 1.20459 44.1551V60.4563Z" fill="#00678F"/>
<path d="M33.2402 47.2027H37.351V56.1329C37.351 56.6291 37.4927 57.7631 39.7607 57.8339C40.9656 57.8339 48.691 57.8339 48.7618 57.8339V47.1318H52.8726C52.8726 47.1318 52.8726 61.7321 52.8726 61.8029C52.8726 65.4176 48.4075 66.1972 46.3521 66.1972H33.382V63.4331H46.423C49.0453 63.1496 48.7618 61.8029 48.7618 61.3777V60.3146H39.9733C35.8626 60.3146 33.2402 58.4718 33.2402 56.4164C33.2402 56.2038 33.382 47.2736 33.2402 47.2027Z" fill="#00678F"/>
<path d="M122.118 36.784C119.566 36.7131 117.653 36.9966 115.952 37.6344C115.455 37.8471 114.747 37.8471 114.676 38.4141C114.959 38.6976 114.959 39.0519 115.172 39.4063C115.526 40.0442 116.235 40.8947 116.802 41.3199C117.44 41.8161 118.149 42.3122 118.857 42.8083C120.062 43.5879 121.48 44.0132 122.685 44.7928C123.393 45.2181 124.102 45.7851 124.74 46.2812C125.094 46.5647 125.307 46.9191 125.732 47.1317V47.0608C125.52 46.7773 125.449 46.3521 125.236 46.0686C124.953 45.7851 124.598 45.5016 124.315 45.1472C123.393 43.9423 122.259 42.8083 121.055 41.9578C120.062 41.2491 117.794 40.3277 117.44 39.1228C117.44 39.1228 117.44 39.1228 117.369 39.0519C118.078 38.9811 118.857 38.7684 119.566 38.5558C120.629 38.2723 121.622 38.3432 122.756 38.0597C123.252 37.9179 123.748 37.7762 124.244 37.6344C124.244 37.5636 124.244 37.4218 124.244 37.3509C123.677 36.784 123.252 36.0043 122.685 35.5082C121.055 34.0907 119.283 32.7441 117.44 31.6101C116.448 30.9722 115.172 30.547 114.18 30.0508C113.825 29.8382 113.187 29.7673 112.975 29.4838C112.408 28.7751 112.053 27.8537 111.699 27.0741C110.778 25.3022 109.927 23.3886 109.077 21.5459C108.51 20.341 108.155 19.0652 107.447 17.9312C104.186 12.5447 100.643 9.28451 95.1852 6.09514C93.9804 5.45726 92.6337 5.17376 91.1454 4.81939C90.3657 4.81939 89.5861 4.74851 88.8065 4.67764C88.3104 4.46501 87.8142 3.82714 87.3181 3.54364C85.5462 2.40964 80.8685 -0.0709764 79.5219 3.18927C78.6714 5.24464 80.7976 7.30001 81.5064 8.29226C82.0734 9.00101 82.7113 9.8515 83.1365 10.6311C83.3491 11.1981 83.42 11.7651 83.6326 12.3321C84.1287 13.7496 84.6249 15.238 85.2627 16.5846C85.6171 17.2225 85.9715 17.9312 86.4676 18.5691C86.7511 18.9235 87.1764 19.0652 87.2472 19.6322C86.822 20.2701 86.7511 21.1915 86.5385 21.9711C85.4045 25.5148 85.8297 29.98 87.4599 32.6023C87.956 33.382 89.1609 35.1538 90.791 34.4451C92.2085 33.8781 91.925 32.1062 92.2794 30.4761C92.3502 30.1217 92.2794 29.8382 92.492 29.6256V29.6965C92.9172 30.547 93.3425 31.4683 93.7677 32.3188C94.76 33.8781 96.461 35.5082 97.8785 36.5713C98.6581 37.1383 99.2251 38.1306 100.217 38.4849V38.4141C100.217 38.4141 100.217 38.4141 100.146 38.4141C99.9338 38.1306 99.6503 37.9888 99.4377 37.7762C98.8707 37.2092 98.2328 36.5005 97.8076 35.8626C96.461 34.0907 95.327 32.1062 94.2638 30.1217C93.7677 29.1295 93.3425 28.0663 92.9172 27.0741C92.7046 26.7197 92.7046 26.1527 92.4211 25.9401C91.925 26.6488 91.2162 27.2158 90.9327 28.0663C90.3657 29.413 90.2949 31.114 90.0822 32.815C89.9405 32.815 90.0114 32.815 89.9405 32.8858C88.9482 32.6023 88.5939 31.6101 88.1686 30.6887C87.2472 28.4207 87.0346 24.8061 87.8851 22.2546C88.0977 21.6167 89.09 19.4905 88.6647 18.8526C88.4521 18.2856 87.8142 17.9312 87.4599 17.4351C87.0346 16.8681 86.6094 16.0885 86.3259 15.3797C85.5462 13.6079 85.1919 11.6234 84.3414 9.8515C83.987 9.00101 83.2782 8.15051 82.7821 7.44176C82.2151 6.59126 81.5064 5.95339 81.0103 4.96114C80.8685 4.60676 80.6559 4.03977 80.8685 3.68539C80.9394 3.40189 81.0811 3.33102 81.2937 3.26014C81.719 2.90577 82.853 3.33102 83.2782 3.54364C84.4831 4.03977 85.4045 4.46501 86.3967 5.10289C86.822 5.38639 87.3181 6.02426 87.8851 6.16601C88.0977 6.16601 88.3104 6.16601 88.523 6.16601C89.5152 6.37864 90.6492 6.23689 91.6415 6.52039C93.3425 7.08738 94.8308 7.86701 96.1775 8.71751C100.288 11.3399 103.761 15.0962 106.029 19.5614C106.383 20.2701 106.596 20.9789 106.88 21.6876C107.517 23.2469 108.368 24.8061 109.006 26.3653C109.644 27.8537 110.282 29.3421 111.274 30.6178C111.77 31.2557 113.613 31.6101 114.534 31.9645C115.172 32.248 116.164 32.5315 116.731 32.815C117.794 33.4528 118.857 34.2325 119.921 34.9412C120.417 35.3665 122.047 36.1461 122.118 36.784Z" fill="#00678F"/>
<path d="M89.8695 9.35547C89.3025 9.35547 88.9481 9.42634 88.5938 9.49722C88.5938 9.49722 88.5938 9.49722 88.5938 9.56809C88.5938 9.56809 88.5937 9.56809 88.6646 9.56809C88.9481 10.0642 89.3734 10.4186 89.6569 10.8438C89.9404 11.34 90.153 11.8361 90.3656 12.3322L90.4365 12.2613C90.8617 11.9778 91.0744 11.4108 91.0744 10.7021C90.8617 10.4895 90.8617 10.2768 90.72 10.0642C90.5074 9.70984 90.0821 9.56809 89.8695 9.35547Z" fill="#00678F"/>
<path d="M56.062 60.4564H67.969C69.3865 60.4564 70.6622 60.1729 71.7962 59.6768C73.5681 58.8263 74.4186 57.7631 74.4186 56.2748V53.2271C74.4186 52.0223 73.4264 50.9591 71.5127 50.1795C70.5205 49.8251 69.2447 49.6125 67.969 49.6125H63.0078C61.3068 49.6125 60.5271 49.1164 60.3145 47.9824C60.3145 47.8406 60.3145 47.6989 60.3145 47.628V45.7853C60.3145 45.7144 60.3145 45.5727 60.3145 45.4309C60.5271 44.5804 60.9524 44.3678 62.4408 44.226C62.5825 44.226 62.7242 44.226 62.7951 44.226H74.5604V41.4619H63.0078C61.3068 41.4619 60.4563 41.5328 59.6766 41.8163C57.2669 42.5959 56.1329 43.8008 56.1329 45.927V48.195C56.1329 50.0378 58.1883 51.6679 61.732 52.0223C62.0864 52.0223 62.5116 52.0223 62.9369 52.0223H67.1894C67.3311 52.0223 67.4729 52.0223 67.6146 52.0223C68.8904 52.164 69.4574 52.3766 69.8826 52.8728C70.1661 53.1563 70.1661 53.3689 70.1661 53.6524V56.0621C70.1661 56.3456 69.9535 56.7 69.5991 57.0544C69.2447 57.4088 68.6069 57.6214 67.8272 57.6214C67.6855 57.6214 67.5437 57.6214 67.402 57.6214H56.062V60.4564Z" fill="#E38D1A"/>
<path d="M100.146 55.6367C100.146 58.4717 102.272 60.031 106.525 60.3145C106.95 60.3145 107.304 60.3853 107.73 60.3853H118.503V57.6212H107.659C105.249 57.6212 104.328 57.0542 104.328 55.5658V41.3909H100.217L100.146 55.6367Z" fill="#E38D1A"/>
<path d="M77.041 55.7786V45.9979C77.041 43.5173 78.8129 41.958 82.2858 41.5328C82.6401 41.5328 83.0654 41.4619 83.4198 41.4619H91.2869C91.7121 41.4619 92.0665 41.4619 92.4917 41.5328C95.9646 42.0289 97.6656 43.5173 97.6656 45.9979V55.7786C97.6656 57.834 96.9568 58.8971 95.2558 59.6059L99.2957 63.2914H94.5471L91.2869 60.3146L87.9557 60.5273H83.5615C82.8528 60.5273 82.0023 60.4564 81.1518 60.2437C78.3168 59.4641 77.041 58.0466 77.041 55.7786ZM81.5061 55.566C81.5061 55.7078 81.577 55.8495 81.577 55.9913C81.7896 57.1253 82.8528 57.7631 84.4829 57.7631H88.2392L84.8372 54.6446H89.5859L92.5626 57.3379C93.1296 57.0544 93.484 56.5583 93.6257 55.9913C93.6257 55.8495 93.6257 55.7078 93.6257 55.566V46.2105C93.6257 46.0688 93.6257 45.927 93.6257 45.8562C93.4131 44.793 92.35 44.1552 90.7199 44.1552H84.4829C82.6401 44.1552 81.4353 44.9348 81.4353 46.2105L81.5061 55.566Z" fill="#E38D1A"/>
<path d="M120.346 60.4563H120.913V58.1175H121.692V57.6213H119.495V58.1175H120.346V60.4563ZM124.952 60.4563H125.519V57.6922H124.669L123.96 59.6058L123.181 57.6922H122.33V60.4563H122.897V58.3301L123.677 60.4563H124.102L124.882 58.3301L124.952 60.4563Z" fill="#E38D1A"/>
</svg>
