<svg width="128" height="128" viewBox="0 0 128 128" fill="none" xmlns="http://www.w3.org/2000/svg">
<path d="M45.8773 50.9917L32.792 58.2317C32.3013 58.5011 32 59.0024 32 59.5437V74.0317C32 74.5731 32.3013 75.0717 32.792 75.3437L45.88 82.5891C46.368 82.8584 46.9733 82.8584 47.4613 82.5891L60.5467 75.3437C61.032 75.0717 61.3333 74.5731 61.3333 74.0317V59.5437C61.3333 59.0024 61.032 58.5037 60.5413 58.2317L47.4587 50.9917C47.2133 50.8557 46.9387 50.7891 46.6667 50.7891C46.392 50.7891 46.12 50.8557 45.8747 50.9917H45.8773ZM113.203 64.0344L111.021 65.2397C110.939 65.2851 110.891 65.3677 110.891 65.4584V67.8744C110.891 67.9651 110.941 68.0477 111.021 68.0931L113.203 69.3011C113.285 69.3464 113.384 69.3464 113.467 69.3011L115.648 68.0931C115.728 68.0477 115.779 67.9651 115.779 67.8744V65.4584C115.779 65.3677 115.728 65.2851 115.645 65.2397L113.464 64.0344C113.424 64.0104 113.379 63.9997 113.333 63.9997C113.288 63.9997 113.243 64.0104 113.203 64.0344Z" fill="#388E3C"/>
<path d="M95.3358 35.6374L88.9652 32.0828C88.7652 31.9708 88.5198 31.9734 88.3225 32.0908C88.1252 32.2081 88.0025 32.4188 88.0025 32.6481L87.9998 54.1201L82.1252 50.8694C81.8798 50.7334 81.6052 50.6668 81.3332 50.6668C81.0612 50.6668 80.7865 50.7334 80.5412 50.8694H80.5438L67.4585 58.1094C66.9678 58.3788 66.6665 58.8801 66.6665 59.4188V73.9068C66.6665 74.4481 66.9678 74.9468 67.4585 75.2188L80.5465 82.4641C81.0345 82.7334 81.6398 82.7334 82.1278 82.4641L95.2132 75.2188C95.6985 74.9494 95.9998 74.4481 95.9998 73.9068V36.7681C95.9998 36.2988 95.7438 35.8668 95.3358 35.6374ZM87.6425 70.5548L81.6958 73.8481C81.4745 73.9708 81.1998 73.9708 80.9785 73.8481L75.0292 70.5548C74.8025 70.4321 74.6665 70.2028 74.6665 69.9574V63.3708C74.6665 63.1254 74.8025 62.8988 75.0265 62.7734L80.9758 59.4828H80.9732C81.0852 59.4214 81.2078 59.3921 81.3332 59.3921C81.4585 59.3921 81.5812 59.4241 81.6932 59.4828L87.6398 62.7734C87.8638 62.8988 87.9998 63.1281 87.9998 63.3734V69.9601C87.9998 70.2028 87.8638 70.4321 87.6425 70.5548Z" fill="#37474F"/>
<path d="M45.8773 50.9917L32 74.0317C32 74.5731 32.3013 75.0717 32.792 75.3437L45.88 82.5891C46.368 82.8584 46.9733 82.8584 47.4613 82.5891L61.3333 59.5437C61.3333 59.0024 61.032 58.5037 60.5413 58.2317L47.4587 50.9917C47.2133 50.8557 46.9387 50.7891 46.6667 50.7891C46.392 50.7891 46.12 50.8557 45.8747 50.9917" fill="#2E7D32"/>
<path d="M45.8773 50.9917L32.792 58.2317C32.3013 58.5011 32 59.0024 32 59.5437L45.8773 82.5891C46.3653 82.8584 46.9707 82.8584 47.4587 82.5891L60.544 75.3437C61.032 75.0717 61.3333 74.5731 61.3333 74.0317L47.4587 50.9917C47.2133 50.8557 46.9387 50.7891 46.6667 50.7891C46.392 50.7891 46.12 50.8557 45.8747 50.9917" fill="#4CAF50"/>
<path d="M127.208 58.1094L114.125 50.8694C113.88 50.7334 113.605 50.6667 113.333 50.6667C113.061 50.6667 112.787 50.7334 112.541 50.8694H112.544L99.4587 58.1094C98.9707 58.3787 98.6667 58.8907 98.6667 59.4507V73.8801C98.6667 74.4374 98.9707 74.9521 99.4587 75.2214L112.547 82.4667C113.037 82.7387 113.637 82.7387 114.128 82.4667L120.163 79.1254C120.715 78.8187 120.712 78.0267 120.157 77.7227L107.027 70.5574C106.805 70.4321 106.667 70.2001 106.667 69.9494V63.3734C106.667 63.1281 106.8 62.9014 107.013 62.7841L112.973 59.4881H112.971C113.083 59.4267 113.205 59.3974 113.331 59.3974C113.456 59.3974 113.579 59.4294 113.691 59.4881L119.651 62.7867C119.864 62.9041 119.997 63.1307 119.997 63.3761V68.7414C119.997 68.9707 120.12 69.1841 120.32 69.2987C120.52 69.4107 120.765 69.4107 120.965 69.2961L127.36 65.5814C127.755 65.3521 128 64.9281 128 64.4694V59.4561C128 58.8934 127.696 58.3787 127.208 58.1094ZM28.5413 58.1094L15.4587 50.8694C15.2133 50.7334 14.9387 50.6667 14.6667 50.6667C14.3947 50.6667 14.12 50.7334 13.8747 50.8694H13.8773L0.792 58.1094C0.304 58.3787 0 58.8907 0 59.4507V79.3574C0 79.5867 0.122667 79.8001 0.322667 79.9147C0.522667 80.0267 0.768 80.0267 0.968 79.9121L7.36267 76.1974C7.75733 75.9681 8 75.5441 8 75.0854V63.3707C8 63.1254 8.13333 62.8987 8.34667 62.7814L14.3067 59.4854C14.4187 59.4241 14.5413 59.3947 14.6667 59.3947C14.792 59.3947 14.9147 59.4267 15.0267 59.4854L20.9867 62.7841C21.2 62.9014 21.3333 63.1281 21.3333 63.3734V75.0881C21.3333 75.5467 21.576 75.9707 21.9733 76.2001L28.368 79.9147C28.568 80.0294 28.8133 80.0294 29.0133 79.9174C29.2107 79.8001 29.3333 79.5867 29.3333 79.3574V59.4534C29.3333 58.8934 29.0293 58.3787 28.5413 58.1094Z" fill="#37474F"/>
</svg>
