<svg width="128" height="128" viewBox="0 0 128 128" fill="none" xmlns="http://www.w3.org/2000/svg">
<path d="M117.555 79.4399C117.067 77.2292 115.062 74.6506 111.016 74.6506C110.19 74.6506 109.286 74.7546 108.256 74.9679C106.368 75.3572 104.76 75.5466 103.344 75.6106C114.366 56.8372 121.52 30.7599 114.435 21.7066C105.099 9.77855 92.531 7.99722 85.8723 7.99722L85.2457 7.99989C82.7683 8.03989 80.1977 8.34389 77.611 8.90389L68.0563 10.9679C66.755 10.8052 65.4297 10.6906 64.0483 10.6666H63.9683H63.9257L63.5203 10.6639C59.2723 10.6639 55.3977 11.5652 51.9443 13.2586L48.6083 11.9439C44.0217 10.1359 37.1203 7.98389 30.2937 7.98389C29.9097 7.98389 29.5283 7.99189 29.1443 8.00522C22.419 8.24789 16.643 10.7999 12.4377 15.3839C7.18965 21.1066 4.80032 29.4772 5.34165 40.2666C5.36832 40.8239 11.8963 95.9999 30.4003 95.9999H30.467L30.6377 95.9972C33.0403 95.9386 35.331 94.9732 37.4723 93.1252C39.107 94.3519 41.2217 95.0772 43.1923 95.3652C44.4937 95.6719 46.835 96.1066 49.6403 96.1066C53.0643 96.1066 56.1523 95.4052 58.8137 94.1385C58.811 96.4852 58.7977 99.4559 58.771 103.253L58.7683 103.453L58.7817 103.653C59.0403 107.437 59.6937 110.848 60.6777 113.523C63.4803 121.147 68.3203 125.347 74.307 125.347C74.555 125.347 74.8083 125.339 75.0643 125.323C79.987 125.019 84.9763 122.253 88.4083 117.931C92.123 113.251 92.9817 108.312 93.3123 104.528L93.3336 104.296V104.061V93.1839L93.6083 93.2106L94.771 93.3119L94.883 93.3226L94.995 93.3279C95.3257 93.3439 95.667 93.3492 96.011 93.3492C100.03 93.3492 104.976 92.3066 108.32 90.7519C111.518 89.2692 118.824 85.1946 117.555 79.4399Z" fill="white"/>
<path d="M88.0002 90.6667C88.0002 90.12 88.0322 89.664 88.0482 89.16C88.0215 88.4907 88.0002 88 88.0002 88C88.0002 88 88.0322 87.976 88.0855 87.9414C88.4828 80.8134 90.4482 78.0667 92.5522 76.5014C92.2589 76.0934 91.9202 75.6534 91.6029 75.2347C90.7149 74.0694 89.6082 72.624 88.4242 70.7707L88.2055 70.3494C88.0268 69.912 87.5948 69.1574 87.0455 68.1654C83.8908 62.4587 77.3255 50.5867 81.8188 43.088C83.7868 39.8027 87.4775 37.9094 92.8082 37.4427C90.6295 31.248 82.4668 16.3067 63.9602 16C63.9548 16 63.9495 16 63.9442 16C47.8348 15.7387 42.5415 30.3787 40.8188 39.1254C43.1922 38.12 45.9015 37.5094 48.3815 37.5094C48.4188 37.5094 48.4588 37.5094 48.4962 37.5094C54.6028 37.5547 58.8028 40.8134 60.0242 46.4534C60.9175 50.592 61.3468 54.2134 61.3362 57.528C61.3095 64.7787 59.8482 68.592 58.5575 71.9574L58.1468 73.0454C57.8162 73.936 57.4668 74.7654 57.1362 75.544C56.8002 76.3387 56.5042 77.0454 56.2882 77.6827C57.5788 77.976 58.5922 78.3894 59.2882 78.696L59.6908 78.872C59.8162 78.9254 59.9415 78.9867 60.0562 79.056C62.3175 80.432 63.7255 82.5467 64.0268 85.0107C64.1895 86.3387 64.1628 95.392 64.1068 103.291C64.3388 106.717 64.9202 109.595 65.6882 111.68C66.7788 114.651 69.5042 120.323 74.7388 119.997C78.3922 119.771 81.9042 117.547 84.2348 114.613C86.7362 111.464 87.6588 107.981 88.0055 104.059V90.6667H88.0002Z" fill="#0277BD"/>
<path d="M40.304 77.1123C36.0026 72.6243 33.9066 66.587 34.6933 60.963C35.4533 55.5363 35.024 50.2243 34.792 47.3683C34.7146 46.4163 34.664 45.7069 34.6666 45.3149C34.6666 45.2936 34.672 45.2749 34.6746 45.2536C34.6746 45.2429 34.6693 45.2349 34.6693 45.2243C34.992 37.1683 38.0986 24.4589 46.6506 16.9043C42.4853 15.2643 35.7013 13.1016 29.3333 13.3336C19.3546 13.6963 9.69595 20.5976 10.6666 40.0003C11.032 47.2803 19.2586 90.9416 30.5066 90.667C32.1146 90.627 33.784 89.595 35.4986 87.531C38.2106 84.2696 40.8453 81.3123 42.72 79.2536C41.88 78.6163 41.0693 77.9123 40.304 77.1123ZM98.728 39.2829C98.768 39.6936 98.7333 40.0456 98.6693 40.3709C98.752 42.8243 98.488 45.2056 98.2186 47.5096C98.0213 49.2056 97.8186 50.9576 97.7626 52.7149C97.7066 54.4349 97.9493 56.1336 98.2053 57.931C98.8053 62.139 99.4293 66.8883 96.1653 72.4296C96.7653 73.219 97.2933 73.9523 97.7146 74.6616C110.008 54.7283 114.963 31.0323 110.235 24.9923C103.08 15.8509 93.1759 13.2056 85.3306 13.3336C82.8746 13.3736 80.6426 13.7043 78.7359 14.1176C92.2719 20.6776 98.3013 34.7363 98.728 39.2829ZM109.333 80.1896C102.227 81.6563 98.808 80.875 97.1493 79.8536C96.8826 80.0456 96.616 80.2083 96.368 80.3603C95.376 80.9603 93.8053 81.915 93.4213 87.779C93.6426 87.8216 93.8373 87.8456 94.0773 87.8963L95.2373 88.0003C98.7573 88.1603 103.368 87.1736 106.072 85.9176C111.899 83.2136 115.075 79.0056 109.333 80.1896ZM58.728 85.651C58.6293 84.8563 58.2 84.2136 57.416 83.699L57.128 83.5736C56.1653 83.1496 55.0746 82.667 53.3333 82.667H53.3226C52.984 82.6936 52.6479 82.7176 52.3093 82.7176C52.1706 82.7176 52.0346 82.699 51.896 82.6936C50.632 83.667 48.8346 84.419 44.3866 85.3336C36.44 87.3576 41.1306 89.747 44.1786 90.1176C47.128 90.8563 54.1386 91.755 58.7946 87.9603C58.7813 86.7656 58.76 85.9443 58.728 85.651Z" fill="#0277BD"/>
<path d="M55.1493 49.3358C54.3706 50.1411 53.1413 50.8451 51.784 50.6264C49.576 50.2691 47.8826 47.6051 48.0053 46.6051C48.1226 45.6078 50.008 45.0878 52.2133 45.4451C52.9786 45.5704 53.6746 45.7864 54.2613 46.0531C53.408 44.2184 51.864 43.1598 49.5093 42.9011C45.336 42.4371 40.9066 44.6184 40.016 45.8264C40.0346 46.1198 40.0693 46.4958 40.104 46.9384C40.352 49.9971 40.8106 55.6958 39.9706 61.7038C39.416 65.6638 41.0186 70.1544 44.1493 73.4238C46.168 75.5304 48.5253 76.8638 50.8506 77.2584C51.1466 75.9838 51.6746 74.7411 52.2186 73.4584C52.52 72.7518 52.84 71.9998 53.1413 71.1864L53.5733 70.0478C54.7546 66.9678 55.9733 63.7811 55.9973 57.5064C56.008 55.0931 55.712 52.3384 55.1493 49.3358ZM92.9253 58.6851C92.648 56.7411 92.3626 54.7278 92.432 52.5438C92.4933 50.5651 92.712 48.6984 92.9226 46.8931C93.088 45.4718 93.216 44.1064 93.2906 42.7598C89.8533 43.0451 87.5706 44.0371 86.488 45.7144C86.936 45.5624 87.4426 45.4424 88.0026 45.3704C90.3813 45.0611 92.1173 45.7464 92.3173 47.0691C92.464 48.0371 91.6426 48.9491 91.2826 49.2984C90.544 50.0158 89.6133 50.4771 88.6666 50.5998C88.496 50.6211 88.3226 50.6318 88.1546 50.6318C87.2133 50.6318 86.3146 50.3091 85.624 49.8318C85.9226 55.0931 89.8026 62.1304 91.712 65.5838C92.12 66.3224 92.4346 66.9118 92.696 67.4184C93.744 64.4344 93.3573 61.7144 92.9253 58.6851Z" fill="#0277BD"/>
</svg>
