<svg width="128" height="128" viewBox="0 0 128 128" fill="none" xmlns="http://www.w3.org/2000/svg">
<path d="M63.8934 74.624C69.808 74.624 74.6027 69.8292 74.6027 63.9147C74.6027 58.0001 69.808 53.2053 63.8934 53.2053C57.9788 53.2053 53.1841 58.0001 53.1841 63.9147C53.1841 69.8292 57.9788 74.624 63.8934 74.624Z" fill="#00D8FF"/>
<path d="M63.8934 88.4478C48.8534 88.4478 35.7121 86.6771 25.8774 83.3065C19.4988 81.1305 14.0801 78.2291 10.2188 74.9225C6.12278 71.4238 3.94678 67.6051 3.94678 63.9145C3.94678 56.8318 11.7121 49.8985 24.7468 45.3758C35.4134 41.6638 49.3228 39.5945 63.8721 39.5945C78.1654 39.5945 91.8828 41.5998 102.485 45.2691C108.693 47.4025 113.92 50.1758 117.632 53.2478C121.664 56.6185 123.797 60.3091 123.797 63.9145C123.797 71.2745 115.115 78.7198 101.12 83.3491C91.2214 86.6345 77.9948 88.4478 63.8934 88.4478ZM63.8934 44.7145C50.0908 44.7145 36.4374 46.7198 26.4534 50.1971C14.4641 54.3785 9.08811 60.0958 9.08811 63.9145C9.08811 67.8825 14.8694 74.1331 27.5414 78.4638C36.8428 81.6425 49.4294 83.3278 63.8934 83.3278C77.4614 83.3278 90.1121 81.6211 99.5201 78.4851C112.683 74.1118 118.699 67.8611 118.699 63.9145C118.699 61.8878 117.163 59.4985 114.368 57.1731C111.147 54.4851 106.453 52.0318 100.843 50.0905C90.7521 46.6345 77.6321 44.7145 63.8934 44.7145Z" fill="#00D8FF"/>
<path d="M39.5948 117.291C37.4188 117.291 35.4988 116.821 33.8775 115.883C27.7548 112.341 25.6215 102.144 28.2028 88.5973C30.3148 77.4826 35.4775 64.4266 42.7521 51.8186C49.8988 39.4453 58.4748 28.5653 66.9441 21.2053C71.8935 16.8959 76.9068 13.7386 81.4295 12.0746C86.3575 10.2613 90.6241 10.2613 93.7388 12.0533C100.117 15.7226 102.229 26.9866 99.2428 41.4079C97.1308 51.6479 92.0961 63.9999 85.0561 76.2239C77.5468 89.2373 69.4401 99.7333 61.6108 106.581C56.5335 111.019 51.3068 114.261 46.5281 115.947C44.0321 116.843 41.6855 117.291 39.5948 117.291ZM44.9495 53.0986L47.1681 54.3786C40.2775 66.3253 35.1788 79.1466 33.2161 89.5573C30.8481 102.037 33.1308 109.547 36.4161 111.445C37.2268 111.915 38.2935 112.171 39.5948 112.171C43.8401 112.171 50.5175 109.483 58.2401 102.741C65.6428 96.2773 73.3868 86.2079 80.6188 73.6853C87.4028 61.9306 92.2241 50.1119 94.2295 40.4053C97.0241 26.8159 94.6135 18.4959 91.1788 16.5119C89.4295 15.5093 86.5921 15.6373 83.1788 16.8959C79.2321 18.3466 74.7735 21.1839 70.2935 25.0879C62.2508 32.0853 54.0375 42.4959 47.1681 54.3999L44.9495 53.0986Z" fill="#00D8FF"/>
<path d="M88.1924 117.355C82.3897 117.355 75.0297 113.856 67.3497 107.243C58.7737 99.8614 50.0484 88.8747 42.7524 76.2667C35.5844 63.8934 30.4644 51.0294 28.3097 40C27.0511 33.5574 26.8164 27.648 27.6271 22.8907C28.5231 17.7067 30.6351 14.016 33.7711 12.2027C40.1284 8.51202 50.9444 12.3094 61.9524 22.1014C69.7604 29.0347 77.9524 39.5734 85.0137 51.776C92.5444 64.7894 97.6004 77.056 99.6057 87.2534C100.907 93.8667 101.12 100.011 100.203 105.003C99.2217 110.315 97.0031 114.091 93.8031 115.947C92.2031 116.885 90.3044 117.355 88.1924 117.355ZM47.1897 73.7067C54.1017 85.6534 62.6777 96.4694 70.6991 103.36C80.3204 111.637 87.9577 113.429 91.2644 111.509C94.6991 109.525 97.2164 101.397 94.6137 88.2561C92.6937 78.6134 87.8511 66.88 80.5977 54.3574C73.7924 42.6027 65.9631 32.512 58.5604 25.9414C48.1924 16.7254 39.7871 14.656 36.3524 16.64C34.6031 17.6427 33.3017 20.1814 32.6831 23.7654C31.9791 27.904 32.1924 33.1947 33.3444 39.0187C35.3924 49.4934 40.2991 61.8027 47.1897 73.7067Z" fill="#00D8FF"/>
</svg>
