<svg width="128" height="128" viewBox="0 0 128 128" fill="none" xmlns="http://www.w3.org/2000/svg">
<path d="M61.3335 10.6667C43.6882 10.6667 29.3335 30.0534 29.3335 53.8801C29.3335 66.7707 33.5522 78.3307 40.2082 86.2428C40.0802 86.8108 40.0002 87.3948 40.0002 88.0001C40.0002 92.4187 43.5815 96.0001 48.0002 96.0001C52.4188 96.0001 56.0002 92.4187 56.0002 88.0001C56.0002 83.5814 52.4188 80.0001 48.0002 80.0001C47.1602 80.0001 46.3682 80.1654 45.6082 80.4054C40.5495 73.9494 37.3335 64.4668 37.3335 53.8801C37.3335 34.4641 48.0988 18.6667 61.3335 18.6667C71.5655 18.6667 80.2962 28.1254 83.7442 41.3814C86.7362 42.3041 89.7095 43.4668 92.6242 44.8694C89.5442 25.3547 76.6908 10.6667 61.3335 10.6667Z" fill="#7E57C2"/>
<path d="M94.6853 53.5574C84.16 47.1787 72.3547 44.3787 62.2 45.6667C60.7333 43.8507 58.5147 42.6667 56 42.6667C51.5813 42.6667 48 46.2481 48 50.6667C48 55.0854 51.5813 58.6667 56 58.6667C59.392 58.6667 62.2747 56.5467 63.4373 53.5681C71.752 52.5574 81.6027 54.9841 90.5387 60.4027C107.613 70.7521 116.325 88.5867 109.957 100.165C107.752 104.176 103.861 107.024 98.7093 108.405C92.6133 110.035 85.3573 109.456 78.104 106.997C75.8667 109.056 73.44 110.992 70.8373 112.779C77.6427 115.757 84.6933 117.323 91.288 117.323C94.5947 117.323 97.7893 116.931 100.779 116.131C108.088 114.176 113.688 109.987 116.968 104.019C125.376 88.7361 115.379 66.0987 94.6853 53.5574Z" fill="#7E57C2"/>
<path d="M93.3336 77.3121C93.3336 72.9068 89.7523 69.3335 85.3336 69.3335C80.9149 69.3335 77.3336 72.9068 77.3336 77.3121C77.3336 79.0961 77.9416 80.7281 78.9336 82.0561C75.5229 89.5281 68.9496 96.9015 60.1016 102.264C49.7949 108.515 38.2749 110.803 29.2883 108.403C24.1363 107.021 20.2456 104.173 18.0403 100.163C13.5016 91.9121 16.6509 80.4935 25.0003 70.8615C24.1389 67.8108 23.5016 64.6215 23.1176 61.3281C9.5976 74.1201 4.16027 91.5228 11.0323 104.019C14.3123 109.987 19.9123 114.176 27.2216 116.131C30.2109 116.931 33.4029 117.323 36.7123 117.323C45.6349 117.323 55.3976 114.475 64.2483 109.109C74.4776 102.909 82.0696 94.2375 86.1389 85.2108C90.1736 84.8028 93.3336 81.4428 93.3336 77.3121Z" fill="#7E57C2"/>
</svg>
