<svg width="128" height="128" viewBox="0 0 128 128" fill="none" xmlns="http://www.w3.org/2000/svg">
<path d="M117.285 63.0267C117.469 51.664 114.909 38.152 109.576 22.2987L105.395 9.8667L99.7145 21.688C99.4105 22.32 99.0638 22.9387 98.7012 23.5494C89.3705 15.5387 77.2638 10.6667 63.9998 10.6667C34.5438 10.6667 10.6665 34.544 10.6665 64C10.6665 93.456 34.5438 117.333 63.9998 117.333C93.4558 117.333 117.333 93.456 117.333 64C117.333 63.672 117.291 63.3547 117.285 63.0267Z" fill="#8BC34A"/>
<path d="M105.026 86.8213C96.6982 98.2933 81.9569 98.9093 68.0822 98.6667H49.9995H44.8315C56.6395 94.4187 63.6662 93.408 70.8422 89.6C84.3569 82.4933 97.7169 66.944 100.498 50.768C95.3515 66.3307 79.7542 79.7013 65.5409 85.1387C55.8022 88.8533 38.2129 92.4587 38.2129 92.4587L37.5009 92.072C25.5275 86.048 25.1649 59.2373 46.9329 50.5813C56.4635 46.7867 65.5809 48.872 75.8769 46.3333C86.8689 43.6347 99.5835 35.112 104.757 24C110.549 41.7787 117.52 69.616 105.026 86.8213ZM41.7809 102.52C41.0289 103.453 39.8795 104 38.6795 104C36.4849 104 34.6929 102.195 34.6929 100C34.6929 97.8053 36.4982 96 38.6795 96C39.5889 96 40.4849 96.3147 41.1889 96.896C42.8955 98.28 43.1622 100.813 41.7809 102.52Z" fill="white"/>
</svg>
